<svg xmlns="http://www.w3.org/2000/svg" height="48" width="48"><path d="M4.35 20.4q0-4.4 1.775-8.35Q7.9 8.1 11.25 5.3l2.7 2.95q-2.7 2.3-4.15 5.45-1.45 3.15-1.45 6.7Zm35.4 0q0-3.55-1.4-6.7-1.4-3.15-4.1-5.45l2.7-2.95q3.35 2.8 5.075 6.725T43.75 20.4ZM5.95 39.1v-4.6h4.65V20.4q0-4.6 2.675-8.275Q15.95 8.45 20.45 7.35v-1.2q0-1.5 1.05-2.475Q22.55 2.7 24 2.7t2.5.975q1.05.975 1.05 2.475v1.2q4.55 1.05 7.275 4.75 2.725 3.7 2.725 8.3v14.1h4.55v4.6ZM24 23.3Zm.05 21.8q-1.75 0-3.075-1.275-1.325-1.275-1.325-3.075h8.75q0 1.85-1.3 3.1t-3.05 1.25Zm-8.9-10.6h17.8V20.4q0-3.7-2.6-6.3-2.6-2.6-6.3-2.6-3.7 0-6.3 2.6-2.6 2.6-2.6 6.3Z"/></svg>